<svg width="146" height="30" viewBox="0 0 146 30" fill="none" xmlns="http://www.w3.org/2000/svg">
<path d="M8.95987 29H0.863281L9.98544 1.36368H20.2411L29.3633 29H21.2667L15.2212 8.97448H15.0053L8.95987 29ZM7.44851 18.0966H22.6701V23.7103H7.44851V18.0966Z" fill="black"/>
<path d="M48.6736 10.4858C48.5567 10.009 48.3723 9.59072 48.1204 9.23087C47.8685 8.86202 47.5536 8.55166 47.1758 8.29976C46.8069 8.03887 46.3751 7.84545 45.8803 7.7195C45.3945 7.58456 44.8593 7.51709 44.2745 7.51709C43.015 7.51709 41.94 7.81846 41.0494 8.42121C40.1677 9.02396 39.493 9.89209 39.0252 11.0256C38.5664 12.1591 38.337 13.5266 38.337 15.1279C38.337 16.7472 38.5574 18.1326 38.9982 19.2841C39.439 20.4357 40.0958 21.3173 40.9684 21.929C41.841 22.5408 42.9251 22.8466 44.2205 22.8466C45.363 22.8466 46.3121 22.6802 47.0678 22.3473C47.8325 22.0145 48.4038 21.5422 48.7816 20.9304C49.1594 20.3187 49.3484 19.599 49.3484 18.7714L50.6438 18.9063H44.3285V13.5625H56.5813V17.3949C56.5813 19.9139 56.046 22.0685 54.9755 23.8587C53.9139 25.64 52.4476 27.0074 50.5764 27.961C48.7141 28.9056 46.5775 29.3779 44.1665 29.3779C41.4767 29.3779 39.1152 28.8066 37.082 27.6641C35.0489 26.5216 33.4611 24.8933 32.3185 22.7792C31.185 20.6651 30.6183 18.1506 30.6183 15.2358C30.6183 12.9508 30.9646 10.9267 31.6573 9.1634C32.359 7.40014 33.3306 5.91127 34.5721 4.69678C35.8136 3.47329 37.2485 2.55118 38.8768 1.93044C40.5051 1.30071 42.2504 0.98584 44.1126 0.98584C45.7499 0.98584 47.2702 1.21974 48.6736 1.68755C50.0861 2.14635 51.332 2.80307 52.4116 3.65771C53.5001 4.50336 54.3772 5.50644 55.043 6.66695C55.7087 7.82746 56.1135 9.10042 56.2575 10.4858H48.6736Z" fill="black"/>
<path d="M83.9917 1.36368V29H77.7303L67.7445 14.4802H67.5826V29H60.0797V1.36368H66.449L76.2729 15.8296H76.4888V1.36368H83.9917Z" fill="black"/>
<path d="M113.342 11.7273H105.731C105.677 11.0976 105.533 10.5263 105.299 10.0135C105.074 9.50076 104.759 9.05994 104.355 8.6911C103.959 8.31325 103.477 8.02538 102.911 7.82746C102.344 7.62055 101.701 7.51709 100.981 7.51709C99.7215 7.51709 98.6555 7.82296 97.7828 8.4347C96.9192 9.04645 96.2625 9.92358 95.8127 11.0661C95.3719 12.2086 95.1515 13.5805 95.1515 15.1819C95.1515 16.8732 95.3764 18.2901 95.8262 19.4326C96.285 20.5661 96.9462 21.4207 97.8098 21.9965C98.6735 22.5633 99.7125 22.8466 100.927 22.8466C101.62 22.8466 102.24 22.7612 102.789 22.5902C103.338 22.4103 103.815 22.1539 104.22 21.8211C104.624 21.4882 104.953 21.0879 105.205 20.6201C105.466 20.1433 105.641 19.608 105.731 19.0142L113.342 19.0682C113.252 20.2377 112.923 21.4297 112.357 22.6442C111.79 23.8497 110.985 24.9652 109.941 25.9908C108.907 27.0074 107.625 27.826 106.095 28.4468C104.566 29.0675 102.789 29.3779 100.765 29.3779C98.2282 29.3779 95.9521 28.8336 93.937 27.7451C91.9308 26.6565 90.343 25.0552 89.1735 22.9411C88.013 20.827 87.4327 18.2406 87.4327 15.1819C87.4327 12.1052 88.0265 9.51425 89.214 7.40914C90.4015 5.29503 92.0028 3.6982 94.0179 2.61865C96.0331 1.53011 98.2821 0.98584 100.765 0.98584C102.51 0.98584 104.116 1.22424 105.583 1.70104C107.049 2.17784 108.335 2.87504 109.442 3.79266C110.548 4.70128 111.439 5.8213 112.114 7.15274C112.789 8.48418 113.198 10.009 113.342 11.7273Z" fill="black"/>
<path d="M124.249 1.36368V29H116.746V1.36368H124.249Z" fill="black"/>
<path d="M135.415 16.9091L135.847 12.1591L131.907 14.912L129.748 11.1336L134.066 9.13641L129.748 7.13925L131.907 3.36084L135.847 6.11368L135.415 1.36368H139.733L139.301 6.11368L143.242 3.36084L145.401 7.13925L141.083 9.13641L145.401 11.1336L143.242 14.912L139.301 12.1591L139.733 16.9091H135.415Z" fill="black"/>
</svg>
